<mxfile host="Electron" modified="2024-03-03T16:21:26.116Z" agent="Mozilla/5.0 (Windows NT 10.0; Win64; x64) AppleWebKit/537.36 (KHTML, like Gecko) draw.io/23.1.5 Chrome/120.0.6099.109 Electron/28.1.0 Safari/537.36" etag="5Aon_qtUdpuPJkw5Z4ib" version="23.1.5" type="device">
  <diagram name="Page-1" id="3E4-J9eWufKUGDvzpdev">
    <mxGraphModel dx="712" dy="875" grid="1" gridSize="10" guides="1" tooltips="1" connect="1" arrows="1" fold="1" page="1" pageScale="1" pageWidth="827" pageHeight="1169" math="0" shadow="0">
      <root>
        <mxCell id="0" />
        <mxCell id="1" parent="0" />
        <mxCell id="mSHdeFPOnr8mZi3dIDjp-1" value="" style="ellipse;html=1;" vertex="1" parent="1">
          <mxGeometry x="150" y="270" width="30" height="30" as="geometry" />
        </mxCell>
        <mxCell id="mSHdeFPOnr8mZi3dIDjp-2" value="" style="endArrow=open;html=1;rounded=0;align=center;verticalAlign=top;endFill=0;labelBackgroundColor=none;endSize=6;" edge="1" source="mSHdeFPOnr8mZi3dIDjp-1" parent="1" target="mSHdeFPOnr8mZi3dIDjp-3">
          <mxGeometry relative="1" as="geometry">
            <mxPoint x="280" y="280" as="targetPoint" />
          </mxGeometry>
        </mxCell>
        <mxCell id="mSHdeFPOnr8mZi3dIDjp-4" value="Move Shape SM" style="shape=umlFrame;whiteSpace=wrap;html=1;pointerEvents=0;recursiveResize=0;container=1;collapsible=0;width=160;" vertex="1" parent="1">
          <mxGeometry x="100" y="200" width="630" height="550" as="geometry" />
        </mxCell>
        <mxCell id="mSHdeFPOnr8mZi3dIDjp-3" value="Ready" style="html=1;align=center;verticalAlign=top;rounded=1;absoluteArcSize=1;arcSize=10;dashed=0;whiteSpace=wrap;" vertex="1" parent="mSHdeFPOnr8mZi3dIDjp-4">
          <mxGeometry x="140" y="65" width="140" height="40" as="geometry" />
        </mxCell>
        <mxCell id="mSHdeFPOnr8mZi3dIDjp-5" value="Shape Selected" style="html=1;align=center;verticalAlign=top;rounded=1;absoluteArcSize=1;arcSize=10;dashed=0;whiteSpace=wrap;" vertex="1" parent="mSHdeFPOnr8mZi3dIDjp-4">
          <mxGeometry x="140" y="180" width="140" height="40" as="geometry" />
        </mxCell>
        <mxCell id="mSHdeFPOnr8mZi3dIDjp-7" value="" style="endArrow=open;startArrow=none;endFill=0;startFill=0;endSize=8;html=1;verticalAlign=bottom;labelBackgroundColor=none;strokeWidth=1;rounded=0;" edge="1" parent="mSHdeFPOnr8mZi3dIDjp-4" source="mSHdeFPOnr8mZi3dIDjp-3" target="mSHdeFPOnr8mZi3dIDjp-5">
          <mxGeometry width="160" relative="1" as="geometry">
            <mxPoint x="240" y="250" as="sourcePoint" />
            <mxPoint x="400" y="250" as="targetPoint" />
          </mxGeometry>
        </mxCell>
        <mxCell id="mSHdeFPOnr8mZi3dIDjp-8" value="[x1, y1] = click()" style="text;strokeColor=none;align=center;fillColor=none;html=1;verticalAlign=middle;whiteSpace=wrap;rounded=0;" vertex="1" parent="mSHdeFPOnr8mZi3dIDjp-4">
          <mxGeometry x="210" y="120" width="110" height="30" as="geometry" />
        </mxCell>
        <mxCell id="mSHdeFPOnr8mZi3dIDjp-9" value="Move Shape" style="html=1;align=center;verticalAlign=top;rounded=1;absoluteArcSize=1;arcSize=10;dashed=0;whiteSpace=wrap;" vertex="1" parent="mSHdeFPOnr8mZi3dIDjp-4">
          <mxGeometry x="140" y="295" width="140" height="40" as="geometry" />
        </mxCell>
        <mxCell id="mSHdeFPOnr8mZi3dIDjp-10" value="" style="endArrow=open;startArrow=none;endFill=0;startFill=0;endSize=8;html=1;verticalAlign=bottom;labelBackgroundColor=none;strokeWidth=1;rounded=0;" edge="1" parent="mSHdeFPOnr8mZi3dIDjp-4" target="mSHdeFPOnr8mZi3dIDjp-9" source="mSHdeFPOnr8mZi3dIDjp-5">
          <mxGeometry width="160" relative="1" as="geometry">
            <mxPoint x="210" y="220" as="sourcePoint" />
            <mxPoint x="400" y="365" as="targetPoint" />
          </mxGeometry>
        </mxCell>
        <mxCell id="mSHdeFPOnr8mZi3dIDjp-11" value="[x2, y2] = click()" style="text;strokeColor=none;align=center;fillColor=none;html=1;verticalAlign=middle;whiteSpace=wrap;rounded=0;" vertex="1" parent="mSHdeFPOnr8mZi3dIDjp-4">
          <mxGeometry x="210" y="235" width="110" height="30" as="geometry" />
        </mxCell>
        <mxCell id="mSHdeFPOnr8mZi3dIDjp-13" value="" style="endArrow=open;startArrow=none;endFill=0;startFill=0;endSize=8;html=1;verticalAlign=bottom;labelBackgroundColor=none;strokeWidth=1;rounded=0;" edge="1" parent="mSHdeFPOnr8mZi3dIDjp-4" target="mSHdeFPOnr8mZi3dIDjp-9" source="mSHdeFPOnr8mZi3dIDjp-9">
          <mxGeometry width="160" relative="1" as="geometry">
            <mxPoint x="210" y="335" as="sourcePoint" />
            <mxPoint x="400" y="480" as="targetPoint" />
          </mxGeometry>
        </mxCell>
        <mxCell id="mSHdeFPOnr8mZi3dIDjp-14" value="[x3, y3] = drag()" style="text;strokeColor=none;align=center;fillColor=none;html=1;verticalAlign=middle;whiteSpace=wrap;rounded=0;" vertex="1" parent="mSHdeFPOnr8mZi3dIDjp-4">
          <mxGeometry x="310" y="300" width="110" height="30" as="geometry" />
        </mxCell>
        <mxCell id="mSHdeFPOnr8mZi3dIDjp-15" value="" style="endArrow=open;startArrow=none;endFill=0;startFill=0;endSize=8;html=1;verticalAlign=bottom;labelBackgroundColor=none;strokeWidth=1;rounded=0;" edge="1" parent="mSHdeFPOnr8mZi3dIDjp-4" source="mSHdeFPOnr8mZi3dIDjp-9" target="mSHdeFPOnr8mZi3dIDjp-3">
          <mxGeometry width="160" relative="1" as="geometry">
            <mxPoint x="220" y="230" as="sourcePoint" />
            <mxPoint x="220" y="305" as="targetPoint" />
            <Array as="points">
              <mxPoint x="60" y="320" />
              <mxPoint x="60" y="160" />
            </Array>
          </mxGeometry>
        </mxCell>
        <mxCell id="mSHdeFPOnr8mZi3dIDjp-16" value="release()" style="text;strokeColor=none;align=center;fillColor=none;html=1;verticalAlign=middle;whiteSpace=wrap;rounded=0;" vertex="1" parent="mSHdeFPOnr8mZi3dIDjp-4">
          <mxGeometry x="30" y="320" width="110" height="30" as="geometry" />
        </mxCell>
      </root>
    </mxGraphModel>
  </diagram>
</mxfile>
